<?xml version="1.0" encoding="utf-8"?>
<!-- Generator: Adobe Illustrator 15.1.0, SVG Export Plug-In . SVG Version: 6.00 Build 0)  -->
<!DOCTYPE svg PUBLIC "-//W3C//DTD SVG 1.1//EN" "http://www.w3.org/Graphics/SVG/1.1/DTD/svg11.dtd">
<svg version="1.1" id="Layer_1" xmlns="http://www.w3.org/2000/svg" xmlns:xlink="http://www.w3.org/1999/xlink" x="0px" y="0px"
	 width="40px" height="40px" viewBox="0 0 40 40" enable-background="new 0 0 40 40" xml:space="preserve">
<path opacity="0.1" fill="#FFFFFF" d="M40,1V0h-9h-1h-9h-1h-9h-1H1H0v1v9v1v9v1v9v1v9h1v-9h9v9h1v-9h9v9h1v-9h9v9h1v-9h9v-1h-9v-9h9
	v-1h-9v-9h9v-1h-9V1H40z M20,1v9h-9V1H20z M20,11v9h-9v-9H20z M1,1h9v9H1V1z M1,11h9v9H1V11z M1,30v-9h9v9H1z M11,30v-9h9v9H11z
	 M30,30h-9v-9h9V30z M30,20h-9v-9h9V20z M30,10h-9V1h9V10z"/>
</svg>
