<?xml version="1.0" encoding="utf-8"?>
<!-- Generator: Adobe Illustrator 15.1.0, SVG Export Plug-In . SVG Version: 6.00 Build 0)  -->
<!DOCTYPE svg PUBLIC "-//W3C//DTD SVG 1.1//EN" "http://www.w3.org/Graphics/SVG/1.1/DTD/svg11.dtd">
<svg version="1.1" id="Layer_1" xmlns="http://www.w3.org/2000/svg" xmlns:xlink="http://www.w3.org/1999/xlink" x="0px" y="0px"
	 width="240px" height="48px" viewBox="0 0 240 48" enable-background="new 0 0 240 48" xml:space="preserve">
<path fill="#FFFFFF" d="M22,5.798c-0.736,0.326-1.526,0.547-2.356,0.646c0.847-0.507,1.498-1.312,1.804-2.27
	c-0.792,0.47-1.671,0.812-2.606,0.995c-0.748-0.797-1.814-1.295-2.995-1.295c-2.266,0-4.103,1.837-4.103,4.103
	c0,0.322,0.036,0.635,0.106,0.935C8.439,8.74,5.416,7.107,3.393,4.624C3.04,5.231,2.837,5.936,2.837,6.688
	c0,1.422,0.724,2.679,1.825,3.415C3.99,10.082,3.357,9.896,2.804,9.59c0,0.017,0,0.036,0,0.051c0,1.989,1.414,3.646,3.292,4.023
	c-0.344,0.096-0.707,0.145-1.082,0.145c-0.264,0-0.521-0.024-0.771-0.073c0.521,1.63,2.037,2.816,3.833,2.849
	c-1.405,1.101-3.174,1.757-5.097,1.757c-0.332,0-0.658-0.019-0.979-0.057c1.816,1.163,3.973,1.842,6.291,1.842
	c7.547,0,11.674-6.251,11.674-11.674c0-0.178-0.004-0.356-0.012-0.53C20.755,7.342,21.452,6.62,22,5.798z"/>
<path fill="#FFFFFF" d="M38.777,6.444h3.334V2h-3.737c-2.93,0-5.151,2.223-5.151,4.444v2.223h-3.334v4.444h3.334V22h4.444v-8.889H41
	V8.667h-3.333V7.556C37.667,6.863,38.398,6.444,38.777,6.444"/>
<g id="XMLID_2_">
	<g>
		<path fill="#FFFFFF" d="M70.68,12.379c-0.894,0.1-2.22-0.326-3.569-0.214c-0.853,1.616-2.448,2.488-4.581,2.823
			c0.11,0.316,0.335,0.414,0.479,0.746c0.642,1.482-0.326,4.87,0.64,5.699c-0.827-0.067-1.519-0.081-1.758-0.692
			c-0.253-0.645-0.035-2.17-0.053-3.036c-0.005-0.269,0.13-0.712-0.213-0.799c-0.009,1.412-0.304,3.854,0.267,4.688
			c-2.183,0.29-1.631-1.967-1.651-3.941c-0.003-0.29,0.122-0.693-0.16-0.8c-0.508,1.66,0.871,5.204-1.757,4.741
			c-0.106-0.124,0.217-0.392,0.266-0.639c0.214-1.073-0.162-2.86,0-4.049c-0.542,0.256-0.32,1.129-0.32,1.812
			c0,1.711,0.21,2.966-1.598,2.823c-0.1-0.16,0.253-0.334,0.32-0.64c0.157-0.712-0.118-1.92,0-2.717
			c-0.644-0.143-1.16,0.004-1.651-0.053c-2.173-0.256-2.049-2.738-3.675-3.569c2.276-0.109,2.271,2.522,5.22,1.918
			c0.142-0.692,0.54-1.129,0.905-1.599c-2.297-0.241-3.965-1.112-4.9-2.717c-1.321-0.077-2.545,0.226-3.568,0.267
			c0.186-0.326,0.688-0.262,1.064-0.319c0.678-0.104,1.494-0.21,2.397-0.16c-0.116-0.464-0.818-0.319-1.332-0.319
			c-0.851,0-1.758,0.043-2.45,0c0.291-0.287,0.912-0.242,1.438-0.267c0.685-0.03,1.415,0.044,2.077,0.054
			c-0.624-1.863-0.25-4.739,1.013-5.807c-0.254-0.953-0.229-2.473,0.159-3.25c1.422,0.104,2.477,0.578,3.356,1.225
			c1.575-0.41,3.916-0.425,5.487,0c0.944-0.6,1.975-1.114,3.408-1.225c0.271,0.799,0.511,2.001,0.267,2.983
			c1.165,1.199,1.863,3.85,1.172,6.073c0.626,0.008,1.38-0.086,2.131-0.054c0.558,0.025,1.17-0.026,1.491,0.267
			c-0.608,0.044-1.583,0-2.45,0c-0.507,0-1.163-0.146-1.332,0.266C68.402,12.027,69.821,11.924,70.68,12.379z"/>
	</g>
</g>
<path fill="#FFFFFF" d="M93.266,3.653L93.266,3.653L93.266,3.653l-6.503,6.991l-2.73-2.879l-1.146,1.207
	c-0.613-1.896-2.313-3.263-4.32-3.263C76.044,5.708,74,7.864,74,10.521c0,2.635,2.01,4.772,4.499,4.812l5.534,5.834l6.356-6.702
	l-0.647-0.684L94,10.358V9.481V3.826v-0.66V2.834L93.266,3.653z M93.266,10.11l-9.557,7.955l-3.818-3.67
	c-0.414,0.159-0.856,0.259-1.324,0.259c-2.166,0-3.919-1.85-3.919-4.133c0-2.28,1.753-4.132,3.919-4.132
	c2.164,0,3.92,1.852,3.92,4.132c0,0.525-0.103,1.023-0.273,1.484l1.639,2.876l9.413-10.237V10.11z"/>
<g>
	<rect x="122" y="7.556" fill="#FFFFFF" width="4.443" height="14.444"/>
	<path fill="#FFFFFF" d="M138.967,8.442c-1.654-0.929-4.097-1.007-5.855-0.204V7.556h-4.444V22h4.444v-8.838l1.832-0.881
		c0.449-0.217,1.434-0.197,1.851,0.037c0.313,0.176,0.763,0.903,0.763,1.349V22H142v-8.333C142,11.625,140.725,9.426,138.967,8.442z
		"/>
	<path fill="#FFFFFF" d="M124.223,2C122.992,2,122,2.995,122,4.222s0.992,2.222,2.223,2.222c1.229,0,2.223-0.995,2.223-2.222
		S125.451,2,124.223,2z"/>
</g>
<g>
	<path fill="#FFFFFF" d="M147.87,13.26v1.848h-1.884V13.26H147.87z"/>
	<path fill="#FFFFFF" d="M150.906,8.904v0.84h0.023c0.225-0.319,0.494-0.567,0.811-0.744c0.316-0.176,0.679-0.264,1.086-0.264
		c0.393,0,0.75,0.076,1.074,0.229c0.324,0.151,0.57,0.42,0.738,0.804c0.184-0.272,0.434-0.512,0.75-0.72
		c0.314-0.208,0.688-0.312,1.121-0.312c0.328,0,0.633,0.04,0.912,0.12s0.52,0.208,0.721,0.384c0.199,0.176,0.354,0.406,0.467,0.69
		c0.113,0.284,0.168,0.626,0.168,1.025v4.152h-1.703v-3.515c0-0.208-0.008-0.404-0.023-0.588c-0.017-0.185-0.061-0.345-0.132-0.48
		c-0.071-0.136-0.179-0.244-0.317-0.324c-0.14-0.08-0.33-0.12-0.57-0.12c-0.239,0-0.434,0.047-0.582,0.139
		c-0.146,0.092-0.264,0.212-0.348,0.359c-0.084,0.148-0.141,0.316-0.168,0.504c-0.029,0.188-0.043,0.378-0.043,0.57v3.456h-1.703
		v-3.48c0-0.184-0.004-0.365-0.013-0.546c-0.009-0.18-0.042-0.346-0.103-0.498c-0.061-0.151-0.16-0.273-0.301-0.365
		c-0.14-0.092-0.346-0.139-0.617-0.139c-0.08,0-0.187,0.019-0.317,0.055c-0.133,0.035-0.261,0.104-0.385,0.204
		c-0.124,0.1-0.229,0.244-0.317,0.432s-0.132,0.434-0.132,0.738v3.599h-1.704V8.904H150.906z"/>
	<path fill="#FFFFFF" d="M161.945,13.619c0.257,0.248,0.625,0.373,1.104,0.373c0.345,0,0.64-0.086,0.888-0.258
		c0.248-0.172,0.4-0.354,0.457-0.547h1.5c-0.24,0.744-0.608,1.277-1.104,1.596c-0.496,0.32-1.097,0.48-1.802,0.48
		c-0.486,0-0.928-0.078-1.318-0.234c-0.393-0.156-0.725-0.377-0.996-0.666c-0.271-0.287-0.482-0.631-0.63-1.031
		s-0.224-0.84-0.224-1.32c0-0.464,0.076-0.896,0.229-1.296c0.151-0.4,0.368-0.746,0.647-1.038c0.279-0.292,0.613-0.522,1.002-0.69
		c0.389-0.168,0.818-0.252,1.289-0.252c0.529,0,0.988,0.103,1.382,0.306c0.392,0.204,0.714,0.479,0.966,0.822
		c0.252,0.343,0.434,0.736,0.546,1.176c0.111,0.44,0.151,0.9,0.12,1.38h-4.477C161.551,12.972,161.689,13.371,161.945,13.619z
		 M163.873,10.356c-0.204-0.224-0.516-0.336-0.932-0.336c-0.271,0-0.498,0.046-0.678,0.138c-0.18,0.092-0.324,0.206-0.432,0.342
		c-0.107,0.137-0.186,0.28-0.229,0.433c-0.045,0.151-0.07,0.288-0.078,0.408h2.771C164.219,10.908,164.076,10.58,163.873,10.356z"/>
</g>
<path fill="#0093CB" d="M22,29.798c-0.736,0.325-1.526,0.548-2.356,0.646c0.847-0.508,1.498-1.312,1.804-2.27
	c-0.792,0.471-1.671,0.812-2.606,0.994c-0.748-0.797-1.814-1.295-2.995-1.295c-2.266,0-4.103,1.838-4.103,4.104
	c0,0.322,0.036,0.635,0.106,0.936c-3.411-0.171-6.434-1.805-8.458-4.288c-0.353,0.606-0.556,1.312-0.556,2.063
	c0,1.422,0.724,2.68,1.825,3.416c-0.672-0.021-1.305-0.207-1.858-0.514c0,0.018,0,0.035,0,0.051c0,1.989,1.414,3.646,3.292,4.023
	c-0.344,0.096-0.707,0.145-1.082,0.145c-0.264,0-0.521-0.023-0.771-0.072c0.521,1.63,2.037,2.815,3.833,2.849
	c-1.405,1.101-3.174,1.757-5.097,1.757c-0.332,0-0.658-0.019-0.979-0.057c1.816,1.163,3.973,1.842,6.291,1.842
	c7.547,0,11.674-6.251,11.674-11.674c0-0.18-0.004-0.355-0.012-0.53C20.755,31.342,21.452,30.62,22,29.798z"/>
<path fill="#0093CB" d="M38.777,30.443h3.334V26h-3.737c-2.93,0-5.151,2.223-5.151,4.443v2.224h-3.334v4.444h3.334V46h4.444v-8.889
	H41v-4.444h-3.333v-1.11C37.667,30.863,38.398,30.443,38.777,30.443"/>
<g id="XMLID_1_">
	<g>
		<path fill="#0093CB" d="M51.45,35.633c-0.851,0-1.758,0.043-2.45,0c0.291-0.287,0.912-0.242,1.438-0.268
			c0.685-0.029,1.415,0.045,2.077,0.055c-0.624-1.863-0.25-4.738,1.013-5.807c-0.254-0.953-0.229-2.473,0.159-3.25
			c1.422,0.104,2.477,0.578,3.356,1.226c1.575-0.409,3.916-0.425,5.487,0c0.944-0.6,1.975-1.114,3.408-1.226
			c0.271,0.8,0.511,2.002,0.267,2.984c1.165,1.198,1.863,3.85,1.172,6.071c0.626,0.008,1.38-0.086,2.131-0.055
			c0.558,0.024,1.17-0.025,1.491,0.268c-0.608,0.044-1.583,0-2.45,0c-0.507,0-1.163-0.146-1.332,0.267
			c1.185,0.129,2.604,0.024,3.462,0.479c-0.894,0.101-2.22-0.326-3.569-0.214c-0.853,1.615-2.448,2.488-4.581,2.822
			c0.11,0.316,0.335,0.414,0.479,0.746c0.642,1.482-0.326,4.871,0.64,5.699c-0.827-0.066-1.519-0.08-1.758-0.691
			c-0.253-0.645-0.035-2.17-0.053-3.036c-0.005-0.269,0.13-0.712-0.213-0.8c-0.009,1.412-0.304,3.855,0.267,4.688
			c-2.183,0.29-1.631-1.967-1.651-3.94c-0.003-0.291,0.122-0.693-0.16-0.801c-0.508,1.66,0.871,5.205-1.757,4.741
			c-0.106-0.124,0.217-0.392,0.266-0.639c0.214-1.073-0.162-2.86,0-4.05c-0.542,0.257-0.32,1.13-0.32,1.812
			c0,1.711,0.21,2.967-1.598,2.823c-0.1-0.16,0.253-0.334,0.32-0.64c0.157-0.713-0.118-1.92,0-2.717
			c-0.644-0.144-1.16,0.004-1.651-0.054c-2.173-0.256-2.049-2.737-3.675-3.569c2.276-0.108,2.271,2.522,5.22,1.918
			c0.142-0.691,0.54-1.129,0.905-1.599c-2.297-0.241-3.965-1.112-4.9-2.717c-1.321-0.077-2.545,0.226-3.568,0.267
			c0.186-0.326,0.688-0.262,1.064-0.318c0.678-0.104,1.494-0.211,2.397-0.16C52.667,35.488,51.964,35.633,51.45,35.633z"/>
	</g>
</g>
<path fill="#0093CB" d="M93.266,27.652L93.266,27.652L93.266,27.652l-6.503,6.992l-2.73-2.881l-1.146,1.207
	c-0.613-1.896-2.313-3.264-4.32-3.264c-2.522,0-4.567,2.156-4.567,4.812c0,2.635,2.01,4.772,4.499,4.812l5.534,5.834l6.356-6.702
	l-0.647-0.685L94,34.357V33.48v-5.654v-0.66v-0.332L93.266,27.652z M93.266,34.109l-9.557,7.955l-3.818-3.67
	c-0.414,0.16-0.856,0.26-1.324,0.26c-2.166,0-3.919-1.85-3.919-4.133c0-2.279,1.753-4.133,3.919-4.133
	c2.164,0,3.92,1.854,3.92,4.133c0,0.524-0.103,1.022-0.273,1.483l1.639,2.876l9.413-10.236V34.109z"/>
<g>
	<rect x="122" y="31.557" fill="#0093CB" width="4.443" height="14.443"/>
	<path fill="#0093CB" d="M138.967,32.441c-1.654-0.928-4.097-1.006-5.855-0.203v-0.684h-4.444V46h4.444v-8.838l1.832-0.881
		c0.449-0.217,1.434-0.197,1.851,0.037c0.313,0.176,0.763,0.902,0.763,1.349V46H142v-8.333
		C142,35.625,140.725,33.426,138.967,32.441z"/>
	<path fill="#0093CB" d="M124.223,26c-1.229,0-2.223,0.995-2.223,2.223s0.992,2.223,2.223,2.223c1.229,0,2.223-0.995,2.223-2.223
		C126.443,26.995,125.451,26,124.223,26z"/>
</g>
<g>
	<path fill="#0093CB" d="M147.87,37.26v1.848h-1.884V37.26H147.87z"/>
	<path fill="#0093CB" d="M150.906,32.904v0.84h0.023c0.225-0.32,0.494-0.568,0.811-0.744s0.679-0.264,1.086-0.264
		c0.393,0,0.75,0.076,1.074,0.229c0.324,0.15,0.57,0.42,0.738,0.803c0.184-0.271,0.434-0.512,0.75-0.719
		c0.314-0.209,0.688-0.312,1.121-0.312c0.328,0,0.633,0.039,0.912,0.119s0.52,0.209,0.721,0.386
		c0.199,0.176,0.354,0.405,0.467,0.688c0.113,0.285,0.168,0.627,0.168,1.025v4.152h-1.703v-3.517c0-0.207-0.008-0.403-0.023-0.588
		c-0.017-0.185-0.061-0.344-0.132-0.479c-0.071-0.135-0.179-0.244-0.317-0.324c-0.14-0.08-0.33-0.119-0.57-0.119
		c-0.239,0-0.434,0.047-0.582,0.139c-0.146,0.092-0.264,0.211-0.348,0.359s-0.141,0.316-0.168,0.504
		c-0.029,0.188-0.043,0.377-0.043,0.57v3.455h-1.703v-3.48c0-0.184-0.004-0.365-0.013-0.545s-0.042-0.346-0.103-0.498
		s-0.16-0.273-0.301-0.365c-0.14-0.092-0.346-0.139-0.617-0.139c-0.08,0-0.187,0.018-0.317,0.055
		c-0.133,0.035-0.261,0.104-0.385,0.203c-0.124,0.1-0.229,0.244-0.317,0.432c-0.088,0.188-0.132,0.435-0.132,0.738v3.6h-1.704
		v-6.203H150.906L150.906,32.904z"/>
	<path fill="#0093CB" d="M161.945,37.619c0.257,0.248,0.625,0.373,1.104,0.373c0.345,0,0.64-0.086,0.888-0.258
		s0.4-0.354,0.457-0.547h1.5c-0.24,0.744-0.608,1.276-1.104,1.596c-0.496,0.32-1.097,0.48-1.802,0.48
		c-0.486,0-0.928-0.078-1.318-0.234c-0.393-0.156-0.725-0.377-0.996-0.666c-0.271-0.287-0.482-0.631-0.63-1.031
		s-0.224-0.84-0.224-1.32c0-0.463,0.076-0.896,0.229-1.295c0.151-0.4,0.368-0.746,0.647-1.039c0.279-0.291,0.613-0.521,1.002-0.688
		c0.389-0.169,0.818-0.253,1.289-0.253c0.529,0,0.988,0.103,1.382,0.306c0.392,0.205,0.714,0.479,0.966,0.822
		s0.434,0.735,0.546,1.176c0.111,0.44,0.151,0.899,0.12,1.381h-4.477C161.551,36.973,161.689,37.371,161.945,37.619z
		 M163.873,34.355c-0.204-0.224-0.516-0.336-0.932-0.336c-0.271,0-0.498,0.047-0.678,0.139s-0.324,0.205-0.432,0.342
		s-0.186,0.279-0.229,0.432c-0.045,0.153-0.07,0.289-0.078,0.408h2.771C164.219,34.908,164.076,34.58,163.873,34.355z"/>
</g>
<g id="g_x2B__29_">
	<g>
		<path fill-rule="evenodd" clip-rule="evenodd" fill="#0093CB" d="M109.542,26.333h-5.056c-0.671,0-1.39,0.079-2.156,0.235
			c-0.775,0.182-1.521,0.57-2.24,1.164c-1.047,1.017-1.57,2.147-1.57,3.394c0,1.031,0.369,1.938,1.107,2.712
			c0.706,0.835,1.731,1.259,3.077,1.276c0.254,0,0.525-0.018,0.812-0.05c-0.047,0.133-0.099,0.277-0.154,0.436
			c-0.064,0.15-0.095,0.336-0.095,0.561c0,0.374,0.083,0.693,0.25,0.96c0.143,0.273,0.305,0.53,0.487,0.771
			c-0.589,0.017-1.331,0.09-2.224,0.223c-0.9,0.156-1.761,0.47-2.58,0.939c-0.729,0.437-1.233,0.943-1.511,1.521
			c-0.287,0.577-0.43,1.1-0.43,1.57c0,0.964,0.441,1.792,1.322,2.485c0.874,0.74,2.196,1.12,3.966,1.137
			c2.116-0.033,3.733-0.541,4.855-1.523c1.082-0.95,1.623-2.04,1.623-3.27c-0.015-0.868-0.212-1.568-0.591-2.106
			c-0.401-0.528-0.869-1.011-1.402-1.449l-0.857-0.706c-0.124-0.124-0.251-0.268-0.382-0.434c-0.155-0.173-0.231-0.392-0.231-0.656
			c0-0.272,0.075-0.512,0.226-0.719c0.128-0.197,0.267-0.375,0.418-0.532c0.264-0.231,0.512-0.458,0.746-0.681
			c0.21-0.224,0.41-0.467,0.599-0.73c0.384-0.547,0.583-1.272,0.599-2.181c0-0.495-0.055-0.929-0.167-1.3
			c-0.135-0.372-0.289-0.694-0.464-0.967c-0.182-0.289-0.369-0.533-0.56-0.73c-0.198-0.189-0.377-0.334-0.536-0.435h1.559
			L109.542,26.333z M106.77,40.182c0.419,0.479,0.628,1.04,0.628,1.685c0,0.792-0.306,1.44-0.917,1.944
			c-0.628,0.513-1.538,0.777-2.729,0.794c-1.328-0.017-2.375-0.314-3.14-0.893c-0.805-0.578-1.207-1.313-1.207-2.205
			c0-0.454,0.093-0.843,0.278-1.165c0.161-0.305,0.358-0.561,0.592-0.768c0.241-0.199,0.479-0.351,0.712-0.458
			c0.233-0.101,0.415-0.174,0.543-0.223c0.547-0.166,1.083-0.286,1.606-0.359c0.531-0.05,0.861-0.067,0.99-0.05
			c0.217,0,0.406,0.008,0.567,0.024C105.635,39.169,106.327,39.727,106.77,40.182z M105.95,32.71
			c-0.061,0.34-0.199,0.67-0.413,0.992c-0.444,0.456-0.999,0.695-1.664,0.721c-0.527,0-0.995-0.161-1.404-0.485
			c-0.41-0.321-0.744-0.716-1.003-1.178c-0.536-0.993-0.803-1.949-0.803-2.868c-0.017-0.694,0.167-1.322,0.549-1.885
			c0.455-0.539,1.024-0.815,1.709-0.832c0.518,0.017,0.976,0.169,1.374,0.459c0.391,0.306,0.705,0.704,0.944,1.192
			c0.51,1.017,0.765,2.025,0.765,3.027C106.004,32.086,105.986,32.371,105.95,32.71z M114.594,34.333v-2.666h-1.333v2.666h-2.667
			v1.333h2.667v2.667h1.333v-2.667h2.666v-1.333H114.594z"/>
	</g>
</g>
<g id="g_x2B__1_">
	<g>
		<path fill-rule="evenodd" clip-rule="evenodd" fill="#FFFFFF" d="M109.542,2.333h-5.056c-0.671,0-1.39,0.079-2.156,0.235
			c-0.775,0.182-1.521,0.57-2.24,1.164c-1.047,1.017-1.57,2.147-1.57,3.394c0,1.031,0.369,1.938,1.107,2.712
			c0.706,0.835,1.731,1.259,3.077,1.276c0.254,0,0.525-0.018,0.812-0.05c-0.047,0.133-0.099,0.277-0.154,0.436
			c-0.064,0.15-0.095,0.336-0.095,0.561c0,0.374,0.083,0.693,0.25,0.96c0.143,0.273,0.305,0.53,0.487,0.771
			c-0.589,0.017-1.331,0.09-2.224,0.223c-0.9,0.156-1.761,0.47-2.58,0.939c-0.729,0.437-1.233,0.943-1.511,1.521
			c-0.287,0.577-0.43,1.1-0.43,1.57c0,0.964,0.441,1.792,1.322,2.485c0.874,0.74,2.196,1.12,3.966,1.137
			c2.116-0.033,3.733-0.541,4.855-1.523c1.082-0.95,1.623-2.04,1.623-3.27c-0.015-0.868-0.212-1.568-0.591-2.106
			c-0.401-0.528-0.869-1.011-1.402-1.449l-0.857-0.706c-0.124-0.124-0.251-0.268-0.382-0.434c-0.155-0.173-0.231-0.392-0.231-0.656
			c0-0.272,0.075-0.512,0.226-0.719c0.128-0.197,0.267-0.375,0.418-0.532c0.264-0.231,0.512-0.458,0.746-0.681
			c0.21-0.224,0.41-0.467,0.599-0.73c0.384-0.547,0.583-1.272,0.599-2.181c0-0.495-0.055-0.929-0.167-1.3
			c-0.135-0.372-0.289-0.694-0.464-0.967c-0.182-0.289-0.369-0.533-0.56-0.73c-0.198-0.189-0.377-0.334-0.536-0.435h1.559
			L109.542,2.333z M106.77,16.182c0.419,0.479,0.628,1.04,0.628,1.685c0,0.792-0.306,1.44-0.917,1.944
			c-0.628,0.513-1.538,0.777-2.729,0.794c-1.328-0.017-2.375-0.314-3.14-0.893c-0.805-0.578-1.207-1.313-1.207-2.205
			c0-0.454,0.093-0.843,0.278-1.165c0.161-0.305,0.358-0.561,0.592-0.768c0.241-0.199,0.479-0.351,0.712-0.458
			c0.233-0.101,0.415-0.174,0.543-0.223c0.547-0.166,1.083-0.286,1.606-0.359c0.531-0.05,0.861-0.067,0.99-0.05
			c0.217,0,0.406,0.008,0.567,0.024C105.635,15.169,106.327,15.727,106.77,16.182z M105.95,8.71c-0.061,0.34-0.199,0.67-0.413,0.992
			c-0.444,0.456-0.999,0.695-1.664,0.721c-0.527,0-0.995-0.161-1.404-0.485c-0.41-0.321-0.744-0.716-1.003-1.178
			c-0.536-0.993-0.803-1.949-0.803-2.868c-0.017-0.694,0.167-1.322,0.549-1.885c0.455-0.539,1.024-0.815,1.709-0.832
			c0.518,0.017,0.976,0.169,1.374,0.459c0.391,0.306,0.705,0.704,0.944,1.192c0.51,1.017,0.765,2.025,0.765,3.027
			C106.004,8.086,105.986,8.371,105.95,8.71z M114.594,10.333V7.667h-1.333v2.666h-2.667v1.333h2.667v2.667h1.333v-2.667h2.666
			v-1.333H114.594z"/>
	</g>
</g>
</svg>
