<?xml version="1.0" encoding="utf-8"?>
<!-- Generator: Adobe Illustrator 15.1.0, SVG Export Plug-In . SVG Version: 6.00 Build 0)  -->
<!DOCTYPE svg PUBLIC "-//W3C//DTD SVG 1.1//EN" "http://www.w3.org/Graphics/SVG/1.1/DTD/svg11.dtd">
<svg version="1.1" id="Layer_1" xmlns="http://www.w3.org/2000/svg" xmlns:xlink="http://www.w3.org/1999/xlink" x="0px" y="0px"
	 width="160px" height="101px" viewBox="0 0 160 101" enable-background="new 0 0 160 101" xml:space="preserve">
<g>
	<g>
		<g>
			<path fill="#FFFFFF" d="M49.865,69.394c0.652,6.235,1.202,10.766,1.651,13.59l2.788-0.676
				C53.034,78.854,51.554,74.552,49.865,69.394z M33.315,74.447c-0.26-1.072-0.596-1.729-1.005-1.972
				c-0.41-0.242-1.139-0.236-2.185,0.018l1.938,7.98c0.233-0.044,0.432-0.085,0.598-0.125c0.74-0.181,1.209-0.488,1.407-0.927
				c0.198-0.437,0.155-1.236-0.127-2.398L33.315,74.447z M52.977,88.547l4.72,4.808l-1.803-5.516L52.977,88.547z M152.277,55.285
				l2.641,11.282L160,68.557L152.277,55.285z M113.043,57.468l2.002,19.455l3.175,1.779l-0.013-0.054L113.043,57.468z
				 M106.541,78.33l3.796,2.286l-8.052-20.05L106.541,78.33z M36.405,85.134c0.007-0.002,0.013-0.005,0.02-0.007l-0.038-0.048
				L36.405,85.134z M147.037,70.458l-0.003-0.007l-0.071-0.03L147.037,70.458z M50.144,47.984l2.57-0.624
				c-1.168-3.198-2.534-7.173-4.098-11.926C49.21,41.185,49.72,45.367,50.144,47.984z M141.26,39.791l6.813-1.654l8.032,13.051
				l-3.44-14.166l6.851-1.663l-6.33-1.425l-0.129,0.044l-5.046,1.226c-1.948-4.253-3.944-9.146-5.991-14.679
				c0.283,2.516,0.816,7.764,1.604,15.744l-9.367,2.273l-10.431-28.229l7.329-1.779l3.255,9.945l3.145,9.604
				c-0.942-5.133-1.856-11.945-2.744-20.436l7.833-1.902c0.3,0.83,1.345,3.96,3.133,9.39l3.527,10.845
				c-1.271-7.137-2.236-14.187-2.896-21.148l7.328-1.779L105.909,0l-5.507,1.337l0.104,0.93l-2.935-0.243l-5.887,1.431l0.105,0.964
				l-2.854-0.297L83.43,5.458l0.156,0.386l-1.16-0.142l-9.348,2.27l0.277,0.972l-2.562-0.416l-5.681,1.379l0.056,0.741l-1.739-0.333
				l-5.681,1.38l0.16,0.64l-1.454-0.324l-12.729,3.091l-12.411,3.014l0.289,1.231l-2.005-0.815l-8.205,1.993l0.319,3.241
				l-4.209-2.296l-7.389,1.793l0.324,2.911L7.33,23.938L0,25.718L5.301,47.55l1.396,1.8L5.87,49.628l5.742,23.645l16.652,27.274
				l-7.639-31.461l8.229-1.998c2.226-0.541,3.979-0.781,5.262-0.723c1.282,0.06,2.304,0.347,3.066,0.86
				c0.762,0.515,1.364,1.216,1.806,2.104c0.441,0.888,0.902,2.316,1.381,4.285l0.665,2.74c0.488,2.008,0.636,3.521,0.446,4.542
				s-0.777,1.91-1.762,2.672c-0.82,0.633-1.918,1.152-3.292,1.559l8.882,11.146l0.089,0.112l-3.477-32.471l11.807-2.866
				l10.349,25.403l4.601,4.28l-6.106-25.145l-4.823,1.171l-1.534-6.314l17.874-4.341l1.533,6.315l-4.86,1.18l4.027,16.556
				l8.829,6.95l-7.639-31.46l13.625-3.309l1.533,6.314l-5.435,1.32l1.449,5.97l5.091-1.235l1.45,5.971L88.6,71.912l1.674,6.89
				l5.97-1.45l0.896,3.687l3.018,2.05l-7.641-31.46l10.555-2.562c0.761,1.818,1.625,3.969,2.596,6.45l3.104,7.722l-1.702-15.143
				l10.669-2.592l7.267,30.161l1.826,0.947l-3.479-32.472l11.809-2.867l11.874,29.179l1.866,0.801L141.26,39.791z M36.554,62.268
				l-4.772-19.608l2.132,20.25l-4.669,1.134l-7.421-18.499l4.646,19.173l-6.602,1.603l-7.055-29.048l9.755-2.369
				c0.705,1.684,1.503,3.671,2.396,5.963l2.863,7.124l-1.557-13.986l9.832-2.388l7.054,29.05L36.554,62.268z M55.834,57.587
				l-1.67-5.127l-2.694,0.653l0.834,5.33l-7.822,1.9l-3.203-29.985l10.917-2.65l11.375,28L55.834,57.587z M66.011,55.114
				l-5.642-23.231l-4.478,1.088l-1.413-5.817l16.515-4.011l1.413,5.817l-4.479,1.088l5.642,23.231L66.011,55.114z M82.947,51.003
				l-5.642-23.232l-4.478,1.088l-1.412-5.818l16.514-4.01l1.412,5.817l-4.479,1.087l5.643,23.232L82.947,51.003z M106.504,45.282
				l-2.965-12.21l-2.238,0.544l2.964,12.209l-7.56,1.836l-7.054-29.049l7.56-1.836l2.519,10.372l2.239-0.544l-2.52-10.372
				l7.559-1.835l7.055,29.049L106.504,45.282z M117.104,42.708l-7.053-29.049l12.591-3.059l1.413,5.817l-5.033,1.223l1.339,5.511
				l4.708-1.143l1.343,5.529l-4.708,1.144l1.547,6.373l5.531-1.343l1.412,5.817L117.104,42.708z M134.412,68.771l4.732,4.849
				l-1.816-5.557L134.412,68.771z M131.301,49.619c0.65,6.234,1.201,10.765,1.65,13.59l2.787-0.677
				C134.468,59.079,132.988,54.775,131.301,49.619z"/>
		</g>
	</g>
</g>
</svg>
